# xmcd
#
# Track frame offsets:
#	150
#	15281
#	34252
#	51414
#	70250
#	89767
#	106446
#	128549
#	144517
#	162003
#	183653
#	211507
#
# Disc length: 3549 seconds
#
# Revision: 1
# Processed by: cddbd v1.5.2PL0 Copyright (c) Steve Scherf et al.
# Submitted via: audiograbber 1.83.01
#
DISCID=a00ddb0c
DTITLE=Various Artist - Chartbusters Country August 2011
DYEAR=2011
DGENRE=Country
TTITLE0=Phil Vassar - Let's Get Together
TTITLE1=Josh Kelley - Gone Like That
TTITLE2=Jennette McCurdy - Generation Love
TTITLE3=Randy Houser - In God's Time
TTITLE4=Scotty McCreary - I Love You This Big
TTITLE5=John Rich - For The Kids
TTITLE6=Randy Rogers Band - Interstate
TTITLE7=Sunny Sweeney - Staying's Worse Than Leaving
TTITLE8=Jaron And The Long Road To Love - It's A Good Thing
TTITLE9=Andy Griggs - Can I Get An Amen
TTITLE10=Jason Michael Carroll - Numbers
TTITLE11=Data - Data Track
EXTD=
EXTT0=
EXTT1=
EXTT2=
EXTT3=
EXTT4=
EXTT5=
EXTT6=
EXTT7=
EXTT8=
EXTT9=
EXTT10=
EXTT11=
PLAYORDER=
